<svg width="622" height="215" viewBox="0 0 622 215" fill="none" xmlns="http://www.w3.org/2000/svg">
<path d="M259.688 90.0695C259.688 95.5813 258.693 100.344 256.702 104.359C254.712 108.374 251.982 111.47 248.511 113.647C245.041 115.825 241.077 116.914 236.62 116.914C232.163 116.914 228.199 115.825 224.729 113.647C221.259 111.47 218.528 108.374 216.538 104.359C214.548 100.344 213.553 95.5813 213.553 90.0695C213.553 84.5578 214.548 79.7946 216.538 75.7799C218.528 71.7651 221.259 68.669 224.729 66.4916C228.199 64.3141 232.163 63.2254 236.62 63.2254C241.077 63.2254 245.041 64.3141 248.511 66.4916C251.982 68.669 254.712 71.7651 256.702 75.7799C258.693 79.7946 259.688 84.5578 259.688 90.0695ZM253.564 90.0695C253.564 85.5445 252.807 81.7254 251.293 78.6123C249.796 75.4992 247.763 73.1431 245.194 71.544C242.642 69.9449 239.784 69.1454 236.62 69.1454C233.456 69.1454 230.59 69.9449 228.021 71.544C225.469 73.1431 223.436 75.4992 221.922 78.6123C220.425 81.7254 219.677 85.5445 219.677 90.0695C219.677 94.5946 220.425 98.4137 221.922 101.527C223.436 104.64 225.469 106.996 228.021 108.595C230.59 110.194 233.456 110.994 236.62 110.994C239.784 110.994 242.642 110.194 245.194 108.595C247.763 106.996 249.796 104.64 251.293 101.527C252.807 98.4137 253.564 94.5946 253.564 90.0695ZM270.328 116.199V63.9398H287.986C292.086 63.9398 295.437 64.6798 298.04 66.1598C300.66 67.6228 302.599 69.6047 303.858 72.1054C305.117 74.6061 305.746 77.3959 305.746 80.475C305.746 83.5541 305.117 86.3525 303.858 88.8702C302.616 91.3879 300.694 93.3953 298.091 94.8923C295.488 96.3723 292.154 97.1123 288.088 97.1123H275.432V91.4985H287.884C290.691 91.4985 292.945 91.0137 294.646 90.044C296.348 89.0744 297.581 87.7645 298.346 86.1144C299.129 84.4472 299.52 82.5675 299.52 80.475C299.52 78.3826 299.129 76.5114 298.346 74.8612C297.581 73.2111 296.339 71.9182 294.621 70.9826C292.903 70.03 290.623 69.5536 287.782 69.5536H276.657V116.199H270.328ZM313.083 69.5536V63.9398H352.277V69.5536H335.844V116.199H329.516V69.5536H313.083ZM368.372 63.9398V116.199H362.044V63.9398H368.372ZM381.061 63.9398H388.614L406.374 107.319H406.986L424.746 63.9398H432.299V116.199H426.379V76.4943H425.869L409.538 116.199H403.822L387.491 76.4943H386.981V116.199H381.061V63.9398ZM451.316 63.9398V116.199H444.988V63.9398H451.316ZM492.584 77.0047C492.278 74.4189 491.036 72.4116 488.858 70.9826C486.681 69.5536 484.01 68.8392 480.846 68.8392C478.532 68.8392 476.508 69.2134 474.773 69.9619C473.055 70.7104 471.711 71.7396 470.741 73.0495C469.789 74.3594 469.312 75.8479 469.312 77.515C469.312 78.91 469.644 80.1093 470.307 81.113C470.988 82.0996 471.855 82.9247 472.91 83.5881C473.965 84.2346 475.071 84.7704 476.227 85.1957C477.384 85.604 478.447 85.9357 479.417 86.1909L484.725 87.6199C486.086 87.9771 487.6 88.4704 489.267 89.0999C490.951 89.7293 492.558 90.5884 494.089 91.6771C495.637 92.7488 496.913 94.1268 497.917 95.8109C498.921 97.4951 499.423 99.562 499.423 102.012C499.423 104.836 498.683 107.387 497.203 109.667C495.74 111.946 493.596 113.758 490.772 115.102C487.965 116.446 484.554 117.118 480.54 117.118C476.797 117.118 473.557 116.514 470.818 115.306C468.096 114.098 465.952 112.414 464.387 110.254C462.839 108.093 461.963 105.584 461.759 102.726H468.291C468.462 104.699 469.125 106.333 470.282 107.625C471.456 108.901 472.936 109.854 474.722 110.483C476.525 111.096 478.464 111.402 480.54 111.402C482.955 111.402 485.124 111.011 487.047 110.228C488.969 109.429 490.492 108.323 491.614 106.911C492.737 105.482 493.298 103.815 493.298 101.91C493.298 100.174 492.814 98.7624 491.844 97.6737C490.874 96.5849 489.598 95.7003 488.016 95.0199C486.434 94.3394 484.725 93.744 482.887 93.2337L476.457 91.3964C472.374 90.2226 469.142 88.547 466.76 86.3695C464.379 84.1921 463.188 81.3426 463.188 77.8212C463.188 74.8953 463.979 72.3435 465.561 70.1661C467.16 67.9716 469.304 66.2704 471.991 65.0626C474.696 63.8378 477.716 63.2254 481.05 63.2254C484.418 63.2254 487.412 63.8293 490.032 65.0371C492.652 66.2279 494.727 67.861 496.258 69.9364C497.806 72.0118 498.623 74.3679 498.708 77.0047H492.584ZM506.969 69.5536V63.9398H546.164V69.5536H529.731V116.199H523.402V69.5536H506.969ZM562.259 63.9398V116.199H555.931V63.9398H562.259ZM617 80.2709H610.671C610.297 78.4507 609.642 76.8516 608.707 75.4736C607.788 74.0957 606.665 72.9389 605.338 72.0033C604.028 71.0507 602.574 70.3362 600.975 69.8598C599.376 69.3835 597.709 69.1454 595.974 69.1454C592.809 69.1454 589.943 69.9449 587.374 71.544C584.822 73.1431 582.79 75.4992 581.276 78.6123C579.779 81.7254 579.03 85.5445 579.03 90.0695C579.03 94.5946 579.779 98.4137 581.276 101.527C582.79 104.64 584.822 106.996 587.374 108.595C589.943 110.194 592.809 110.994 595.974 110.994C597.709 110.994 599.376 110.756 600.975 110.279C602.574 109.803 604.028 109.097 605.338 108.161C606.665 107.209 607.788 106.043 608.707 104.665C609.642 103.27 610.297 101.671 610.671 99.8682H617C616.523 102.539 615.656 104.929 614.397 107.039C613.138 109.148 611.573 110.943 609.702 112.423C607.831 113.886 605.73 115 603.399 115.765C601.085 116.531 598.61 116.914 595.974 116.914C591.517 116.914 587.553 115.825 584.082 113.647C580.612 111.47 577.882 108.374 575.891 104.359C573.901 100.344 572.906 95.5813 572.906 90.0695C572.906 84.5578 573.901 79.7946 575.891 75.7799C577.882 71.7651 580.612 68.669 584.082 66.4916C587.553 64.3141 591.517 63.2254 595.974 63.2254C598.61 63.2254 601.085 63.6081 603.399 64.3736C605.73 65.1392 607.831 66.2619 609.702 67.7419C611.573 69.2049 613.138 70.9911 614.397 73.1005C615.656 75.193 616.523 77.5831 617 80.2709Z" fill="black"/>
<path d="M215.432 154.746V126.904H217.974V152.462H231.243V154.746H215.432ZM243.741 154.746H241.076L251.204 126.904H253.923L264.051 154.746H261.386L252.659 130.208H252.468L243.741 154.746ZM245.657 144.074H259.47V146.358H245.657V144.074ZM273.799 154.746V126.904H283.193C285.006 126.904 286.515 127.222 287.72 127.856C288.935 128.49 289.845 129.356 290.453 130.453C291.06 131.549 291.364 132.795 291.364 134.191C291.364 135.351 291.169 136.344 290.779 137.168C290.389 137.993 289.859 138.659 289.188 139.167C288.518 139.674 287.77 140.041 286.945 140.268V140.485C287.843 140.549 288.713 140.866 289.555 141.437C290.398 141.999 291.092 142.787 291.635 143.802C292.179 144.818 292.451 146.032 292.451 147.446C292.451 148.851 292.138 150.106 291.513 151.212C290.888 152.308 289.927 153.174 288.631 153.808C287.344 154.433 285.704 154.746 283.71 154.746H273.799ZM276.341 152.462H283.71C285.858 152.462 287.444 151.986 288.468 151.035C289.501 150.083 290.018 148.887 290.018 147.446C290.018 146.385 289.759 145.425 289.243 144.564C288.735 143.694 288.015 143.005 287.081 142.497C286.157 141.99 285.069 141.736 283.819 141.736H276.341V152.462ZM276.341 139.479H283.424C284.521 139.479 285.482 139.253 286.306 138.8C287.131 138.346 287.775 137.721 288.237 136.924C288.699 136.126 288.93 135.215 288.93 134.191C288.93 132.714 288.45 131.513 287.489 130.589C286.528 129.655 285.096 129.188 283.193 129.188H276.341V139.479ZM318.68 133.865C318.525 132.315 317.841 131.082 316.627 130.167C315.412 129.252 313.885 128.794 312.045 128.794C310.749 128.794 309.607 129.016 308.62 129.46C307.641 129.904 306.87 130.521 306.308 131.309C305.756 132.088 305.479 132.977 305.479 133.974C305.479 134.708 305.638 135.351 305.955 135.904C306.272 136.457 306.698 136.933 307.233 137.331C307.777 137.721 308.375 138.056 309.027 138.337C309.689 138.618 310.355 138.854 311.026 139.044L313.962 139.887C314.85 140.132 315.739 140.445 316.627 140.825C317.515 141.206 318.326 141.686 319.06 142.266C319.803 142.837 320.397 143.54 320.841 144.373C321.294 145.198 321.521 146.191 321.521 147.351C321.521 148.837 321.136 150.174 320.365 151.361C319.595 152.548 318.489 153.491 317.048 154.189C315.607 154.878 313.881 155.222 311.869 155.222C309.974 155.222 308.33 154.909 306.934 154.284C305.538 153.649 304.441 152.775 303.644 151.66C302.846 150.545 302.398 149.254 302.298 147.786H304.908C304.999 148.882 305.361 149.811 305.996 150.573C306.63 151.334 307.455 151.914 308.47 152.313C309.485 152.702 310.618 152.897 311.869 152.897C313.255 152.897 314.488 152.666 315.566 152.204C316.654 151.733 317.506 151.08 318.122 150.246C318.747 149.403 319.06 148.425 319.06 147.31C319.06 146.367 318.815 145.579 318.326 144.944C317.837 144.301 317.152 143.762 316.273 143.327C315.403 142.892 314.393 142.506 313.242 142.171L309.911 141.192C307.727 140.54 306.032 139.638 304.827 138.487C303.621 137.336 303.019 135.868 303.019 134.082C303.019 132.587 303.417 131.273 304.215 130.14C305.021 128.998 306.109 128.11 307.478 127.475C308.855 126.832 310.4 126.51 312.113 126.51C313.844 126.51 315.376 126.827 316.708 127.462C318.041 128.096 319.096 128.971 319.876 130.086C320.664 131.191 321.086 132.451 321.14 133.865H318.68Z" fill="black"/>
<path d="M104.799 70.7578C126.326 70.7578 143.778 88.2088 143.778 109.736C143.778 131.264 126.327 148.716 104.799 148.716C83.2713 148.716 65.8203 131.264 65.8203 109.736C65.8205 88.209 83.2715 70.758 104.799 70.7578Z" fill="#7F6CFD" stroke="#7F6CFD" stroke-width="1.53825"/>
<path d="M35.2865 144.936C15.976 106.791 31.4518 59.5432 69.6114 40.2252C85.587 32.1378 103.858 29.8082 121.346 33.612L120.612 36.9895C119.295 43.0447 113.302 46.7786 107.109 46.5507C96.4729 46.1593 85.8446 48.4573 76.2402 53.3194C45.3142 68.9754 32.7303 107.392 48.3806 138.307C64.0318 169.223 102.431 181.828 133.355 166.173C160.887 152.235 173.887 120.269 165.362 91.5993C163.596 85.6595 165.696 78.9167 171.225 76.1179L174.309 74.5568C193.626 112.716 178.142 159.95 139.984 179.267C101.822 198.586 54.596 183.079 35.2865 144.936Z" fill="#7F6CFD"/>
<path d="M152.202 8.66328L153.072 32.3933C153.434 42.2574 161.381 50.1557 171.247 50.4565L194.975 51.1837L171.245 52.0539C161.381 52.4152 153.482 60.362 153.182 70.228L152.454 93.9562L151.584 70.2261C151.223 60.362 143.276 52.4638 133.41 52.163L109.682 51.4358L133.412 50.5656C143.276 50.2043 151.174 42.2574 151.475 32.3914L152.202 8.66328Z" fill="black"/>
<path d="M340.543 128.824L340.543 154.703" stroke="#7F6CFD" stroke-width="1.90806" stroke-linecap="round"/>
<path d="M359.938 151.973V130.224H373.871V133.527H363.878V139.431H372.915V142.734H363.878V151.973H359.938ZM378.733 151.973H374.528L382.185 130.224H387.048L394.716 151.973H390.51L384.701 134.684H384.532L378.733 151.973ZM378.871 143.445H390.34V146.61H378.871V143.445ZM402.716 130.224V151.973H398.776V130.224H402.716ZM407.223 133.527V130.224H424.575V133.527H417.853V151.973H413.945V133.527H407.223ZM429.116 151.973V130.224H433.056V139.431H443.134V130.224H447.084V151.973H443.134V142.734H433.056V151.973H429.116Z" fill="#7F6CFD"/>
</svg>
