<svg width="622" height="215" viewBox="0 0 622 215" fill="none" xmlns="http://www.w3.org/2000/svg">
<path d="M259.598 90.0695C259.598 95.5813 258.603 100.344 256.612 104.359C254.622 108.374 251.892 111.47 248.421 113.647C244.951 115.825 240.987 116.914 236.53 116.914C232.073 116.914 228.11 115.825 224.639 113.647C221.169 111.47 218.439 108.374 216.448 104.359C214.458 100.344 213.463 95.5813 213.463 90.0695C213.463 84.5578 214.458 79.7946 216.448 75.7799C218.439 71.7651 221.169 68.669 224.639 66.4916C228.11 64.3141 232.073 63.2254 236.53 63.2254C240.987 63.2254 244.951 64.3141 248.421 66.4916C251.892 68.669 254.622 71.7651 256.612 75.7799C258.603 79.7946 259.598 84.5578 259.598 90.0695ZM253.474 90.0695C253.474 85.5445 252.717 81.7254 251.203 78.6123C249.706 75.4992 247.673 73.1431 245.104 71.544C242.552 69.9449 239.694 69.1454 236.53 69.1454C233.366 69.1454 230.5 69.9449 227.931 71.544C225.379 73.1431 223.346 75.4992 221.832 78.6123C220.335 81.7254 219.587 85.5445 219.587 90.0695C219.587 94.5946 220.335 98.4137 221.832 101.527C223.346 104.64 225.379 106.996 227.931 108.595C230.5 110.194 233.366 110.994 236.53 110.994C239.694 110.994 242.552 110.194 245.104 108.595C247.673 106.996 249.706 104.64 251.203 101.527C252.717 98.4137 253.474 94.5946 253.474 90.0695ZM270.239 116.199V63.9398H287.897C291.996 63.9398 295.348 64.6798 297.95 66.1598C300.57 67.6228 302.509 69.6047 303.768 72.1054C305.027 74.6061 305.657 77.3959 305.657 80.475C305.657 83.5541 305.027 86.3525 303.768 88.8702C302.526 91.3879 300.604 93.3953 298.001 94.8923C295.399 96.3723 292.064 97.1123 287.999 97.1123H275.342V91.4985H287.795C290.601 91.4985 292.855 91.0137 294.557 90.044C296.258 89.0744 297.491 87.7645 298.257 86.1144C299.039 84.4472 299.43 82.5675 299.43 80.475C299.43 78.3826 299.039 76.5114 298.257 74.8612C297.491 73.2111 296.249 71.9182 294.531 70.9826C292.813 70.03 290.533 69.5536 287.692 69.5536H276.567V116.199H270.239ZM312.993 69.5536V63.9398H352.187V69.5536H335.754V116.199H329.426V69.5536H312.993ZM368.282 63.9398V116.199H361.954V63.9398H368.282ZM380.971 63.9398H388.524L406.284 107.319H406.896L424.656 63.9398H432.21V116.199H426.29V76.4943H425.779L409.448 116.199H403.732L387.401 76.4943H386.891V116.199H380.971V63.9398ZM451.226 63.9398V116.199H444.898V63.9398H451.226ZM492.494 77.0047C492.188 74.4189 490.946 72.4116 488.769 70.9826C486.591 69.5536 483.92 68.8392 480.756 68.8392C478.443 68.8392 476.418 69.2134 474.683 69.9619C472.965 70.7104 471.621 71.7396 470.651 73.0495C469.699 74.3594 469.222 75.8479 469.222 77.515C469.222 78.91 469.554 80.1093 470.218 81.113C470.898 82.0996 471.766 82.9247 472.82 83.5881C473.875 84.2346 474.981 84.7704 476.138 85.1957C477.294 85.604 478.358 85.9357 479.327 86.1909L484.635 87.6199C485.996 87.9771 487.51 88.4704 489.177 89.0999C490.861 89.7293 492.469 90.5884 494 91.6771C495.548 92.7488 496.824 94.1268 497.827 95.8109C498.831 97.4951 499.333 99.562 499.333 102.012C499.333 104.836 498.593 107.387 497.113 109.667C495.65 111.946 493.506 113.758 490.682 115.102C487.875 116.446 484.465 117.118 480.45 117.118C476.707 117.118 473.467 116.514 470.728 115.306C468.006 114.098 465.863 112.414 464.297 110.254C462.749 108.093 461.873 105.584 461.669 102.726H468.202C468.372 104.699 469.035 106.333 470.192 107.625C471.366 108.901 472.846 109.854 474.632 110.483C476.435 111.096 478.375 111.402 480.45 111.402C482.866 111.402 485.035 111.011 486.957 110.228C488.879 109.429 490.402 108.323 491.524 106.911C492.647 105.482 493.209 103.815 493.209 101.91C493.209 100.174 492.724 98.7624 491.754 97.6737C490.784 96.5849 489.509 95.7003 487.926 95.0199C486.344 94.3394 484.635 93.744 482.798 93.2337L476.367 91.3964C472.284 90.2226 469.052 88.547 466.671 86.3695C464.289 84.1921 463.098 81.3426 463.098 77.8212C463.098 74.8953 463.889 72.3435 465.471 70.1661C467.07 67.9716 469.214 66.2704 471.902 65.0626C474.606 63.8378 477.626 63.2254 480.96 63.2254C484.329 63.2254 487.323 63.8293 489.942 65.0371C492.562 66.2279 494.638 67.861 496.169 69.9364C497.717 72.0118 498.533 74.3679 498.618 77.0047H492.494ZM506.879 69.5536V63.9398H546.074V69.5536H529.641V116.199H523.313V69.5536H506.879ZM562.169 63.9398V116.199H555.841V63.9398H562.169ZM616.91 80.2709H610.582C610.207 78.4507 609.552 76.8516 608.617 75.4736C607.698 74.0957 606.575 72.9389 605.249 72.0033C603.939 71.0507 602.484 70.3362 600.885 69.8598C599.286 69.3835 597.619 69.1454 595.884 69.1454C592.72 69.1454 589.853 69.9449 587.284 71.544C584.733 73.1431 582.7 75.4992 581.186 78.6123C579.689 81.7254 578.94 85.5445 578.94 90.0695C578.94 94.5946 579.689 98.4137 581.186 101.527C582.7 104.64 584.733 106.996 587.284 108.595C589.853 110.194 592.72 110.994 595.884 110.994C597.619 110.994 599.286 110.756 600.885 110.279C602.484 109.803 603.939 109.097 605.249 108.161C606.575 107.209 607.698 106.043 608.617 104.665C609.552 103.27 610.207 101.671 610.582 99.8682H616.91C616.434 102.539 615.566 104.929 614.307 107.039C613.048 109.148 611.483 110.943 609.612 112.423C607.741 113.886 605.64 115 603.309 115.765C600.996 116.531 598.52 116.914 595.884 116.914C591.427 116.914 587.463 115.825 583.993 113.647C580.522 111.47 577.792 108.374 575.802 104.359C573.811 100.344 572.816 95.5813 572.816 90.0695C572.816 84.5578 573.811 79.7946 575.802 75.7799C577.792 71.7651 580.522 68.669 583.993 66.4916C587.463 64.3141 591.427 63.2254 595.884 63.2254C598.52 63.2254 600.996 63.6081 603.309 64.3736C605.64 65.1392 607.741 66.2619 609.612 67.7419C611.483 69.2049 613.048 70.9911 614.307 73.1005C615.566 75.193 616.434 77.5831 616.91 80.2709Z" fill="black"/>
<path d="M215.338 154.746V126.904H217.881V152.462H231.149V154.746H215.338ZM243.647 154.746H240.982L251.11 126.904H253.829L263.957 154.746H261.293L252.565 130.208H252.375L243.647 154.746ZM245.564 144.074H259.376V146.358H245.564V144.074ZM273.706 154.746V126.904H283.099C284.912 126.904 286.421 127.222 287.626 127.856C288.841 128.49 289.752 129.356 290.359 130.453C290.966 131.549 291.27 132.795 291.27 134.191C291.27 135.351 291.075 136.344 290.685 137.168C290.295 137.993 289.765 138.659 289.095 139.167C288.424 139.674 287.676 140.041 286.852 140.268V140.485C287.749 140.549 288.619 140.866 289.462 141.437C290.305 141.999 290.998 142.787 291.542 143.802C292.085 144.818 292.357 146.032 292.357 147.446C292.357 148.851 292.045 150.106 291.419 151.212C290.794 152.308 289.833 153.174 288.537 153.808C287.25 154.433 285.61 154.746 283.616 154.746H273.706ZM276.248 152.462H283.616C285.764 152.462 287.35 151.986 288.374 151.035C289.407 150.083 289.924 148.887 289.924 147.446C289.924 146.385 289.666 145.425 289.149 144.564C288.641 143.694 287.921 143.005 286.987 142.497C286.063 141.99 284.975 141.736 283.725 141.736H276.248V152.462ZM276.248 139.479H283.331C284.427 139.479 285.388 139.253 286.213 138.8C287.037 138.346 287.681 137.721 288.143 136.924C288.605 136.126 288.836 135.215 288.836 134.191C288.836 132.714 288.356 131.513 287.395 130.589C286.435 129.655 285.003 129.188 283.099 129.188H276.248V139.479ZM318.586 133.865C318.432 132.315 317.747 131.082 316.533 130.167C315.319 129.252 313.791 128.794 311.952 128.794C310.656 128.794 309.514 129.016 308.526 129.46C307.547 129.904 306.777 130.521 306.215 131.309C305.662 132.088 305.385 132.977 305.385 133.974C305.385 134.708 305.544 135.351 305.861 135.904C306.178 136.457 306.604 136.933 307.139 137.331C307.683 137.721 308.281 138.056 308.934 138.337C309.595 138.618 310.261 138.854 310.932 139.044L313.868 139.887C314.757 140.132 315.645 140.445 316.533 140.825C317.421 141.206 318.232 141.686 318.966 142.266C319.71 142.837 320.303 143.54 320.747 144.373C321.2 145.198 321.427 146.191 321.427 147.351C321.427 148.837 321.042 150.174 320.271 151.361C319.501 152.548 318.395 153.491 316.954 154.189C315.513 154.878 313.787 155.222 311.775 155.222C309.881 155.222 308.236 154.909 306.84 154.284C305.444 153.649 304.348 152.775 303.55 151.66C302.753 150.545 302.304 149.254 302.204 147.786H304.814C304.905 148.882 305.268 149.811 305.902 150.573C306.536 151.334 307.361 151.914 308.376 152.313C309.391 152.702 310.524 152.897 311.775 152.897C313.162 152.897 314.394 152.666 315.473 152.204C316.56 151.733 317.412 151.08 318.028 150.246C318.654 149.403 318.966 148.425 318.966 147.31C318.966 146.367 318.722 145.579 318.232 144.944C317.743 144.301 317.059 143.762 316.18 143.327C315.309 142.892 314.299 142.506 313.148 142.171L309.817 141.192C307.633 140.54 305.938 139.638 304.733 138.487C303.527 137.336 302.925 135.868 302.925 134.082C302.925 132.587 303.324 131.273 304.121 130.14C304.928 128.998 306.015 128.11 307.384 127.475C308.761 126.832 310.307 126.51 312.02 126.51C313.751 126.51 315.282 126.827 316.615 127.462C317.947 128.096 319.003 128.971 319.782 130.086C320.571 131.191 320.992 132.451 321.046 133.865H318.586Z" fill="black"/>
<path d="M104.709 70.7578C126.237 70.7578 143.688 88.2088 143.688 109.736C143.688 131.264 126.237 148.716 104.709 148.716C83.1815 148.716 65.7305 131.264 65.7305 109.736C65.7307 88.209 83.1816 70.758 104.709 70.7578Z" fill="#7F6CFD" stroke="#7F6CFD" stroke-width="1.53825"/>
<path d="M35.1927 144.936C15.8823 106.791 31.3581 59.5432 69.5177 40.2252C85.4932 32.1378 103.764 29.8082 121.253 33.612L120.518 36.9895C119.201 43.0447 113.208 46.7786 107.016 46.5507C96.3792 46.1593 85.7508 48.4573 76.1465 53.3194C45.2204 68.9754 32.6366 107.392 48.2869 138.307C63.9381 169.223 102.337 181.828 133.261 166.173C160.794 152.235 173.793 120.269 165.268 91.5993C163.502 85.6595 165.603 78.9167 171.131 76.1179L174.215 74.5568C193.532 112.716 178.049 159.95 139.89 179.267C101.729 198.586 54.5023 183.079 35.1927 144.936Z" fill="#7F6CFD"/>
<path d="M152.112 8.66328L152.983 32.3933C153.344 42.2574 161.291 50.1557 171.157 50.4565L194.885 51.1837L171.155 52.0539C161.291 52.4152 153.392 60.362 153.092 70.228L152.364 93.9562L151.494 70.2261C151.133 60.362 143.186 52.4638 133.32 52.163L109.592 51.4358L133.322 50.5656C143.186 50.2043 151.084 42.2574 151.385 32.3914L152.112 8.66328Z" fill="black"/>
<path d="M340.449 128.824L340.449 154.703" stroke="#7F6CFD" stroke-width="1.90806" stroke-linecap="round"/>
<path d="M370.965 136.226C370.865 135.299 370.448 134.577 369.711 134.06C368.982 133.543 368.034 133.285 366.865 133.285C366.044 133.285 365.34 133.409 364.752 133.656C364.165 133.904 363.715 134.24 363.404 134.665C363.092 135.09 362.933 135.575 362.926 136.12C362.926 136.573 363.028 136.966 363.234 137.299C363.446 137.632 363.733 137.915 364.094 138.148C364.455 138.375 364.855 138.566 365.294 138.722C365.733 138.878 366.175 139.009 366.621 139.115L368.66 139.624C369.481 139.816 370.271 140.074 371.028 140.4C371.793 140.725 372.476 141.136 373.078 141.632C373.687 142.127 374.168 142.725 374.522 143.426C374.876 144.127 375.053 144.948 375.053 145.89C375.053 147.164 374.727 148.286 374.076 149.256C373.425 150.219 372.483 150.973 371.251 151.518C370.026 152.056 368.543 152.325 366.802 152.325C365.11 152.325 363.641 152.063 362.395 151.539C361.156 151.016 360.186 150.251 359.485 149.246C358.791 148.24 358.416 147.016 358.359 145.571H362.235C362.292 146.329 362.526 146.959 362.936 147.462C363.347 147.964 363.881 148.339 364.54 148.587C365.205 148.835 365.949 148.959 366.77 148.959C367.627 148.959 368.377 148.832 369.021 148.577C369.673 148.315 370.182 147.954 370.55 147.493C370.919 147.026 371.106 146.481 371.113 145.858C371.106 145.292 370.94 144.824 370.614 144.456C370.288 144.081 369.832 143.77 369.244 143.522C368.664 143.267 367.984 143.04 367.205 142.842L364.731 142.205C362.94 141.745 361.524 141.047 360.483 140.113C359.45 139.171 358.933 137.922 358.933 136.364C358.933 135.083 359.28 133.961 359.973 132.998C360.674 132.035 361.627 131.288 362.83 130.757C364.034 130.219 365.396 129.95 366.919 129.95C368.462 129.95 369.814 130.219 370.975 130.757C372.143 131.288 373.06 132.028 373.726 132.977C374.391 133.918 374.734 135.001 374.756 136.226H370.965ZM379.762 151.996V130.248H387.917C389.588 130.248 390.99 130.559 392.123 131.182C393.262 131.805 394.123 132.662 394.703 133.752C395.291 134.835 395.585 136.067 395.585 137.447C395.585 138.842 395.291 140.081 394.703 141.164C394.116 142.247 393.248 143.101 392.101 143.724C390.954 144.339 389.542 144.647 387.864 144.647H382.459V141.409H387.333C388.31 141.409 389.11 141.239 389.733 140.899C390.356 140.559 390.816 140.092 391.114 139.497C391.418 138.902 391.57 138.219 391.57 137.447C391.57 136.676 391.418 135.996 391.114 135.409C390.816 134.821 390.353 134.364 389.723 134.039C389.1 133.706 388.296 133.54 387.312 133.54H383.701V151.996H379.762ZM419.636 141.122C419.636 143.465 419.197 145.472 418.32 147.143C417.449 148.807 416.259 150.081 414.751 150.966C413.251 151.851 411.548 152.293 409.643 152.293C407.739 152.293 406.033 151.851 404.525 150.966C403.024 150.074 401.835 148.796 400.957 147.132C400.086 145.462 399.651 143.458 399.651 141.122C399.651 138.778 400.086 136.775 400.957 135.111C401.835 133.44 403.024 132.163 404.525 131.278C406.033 130.393 407.739 129.95 409.643 129.95C411.548 129.95 413.251 130.393 414.751 131.278C416.259 132.163 417.449 133.44 418.32 135.111C419.197 136.775 419.636 138.778 419.636 141.122ZM415.675 141.122C415.675 139.472 415.417 138.081 414.9 136.948C414.39 135.809 413.682 134.948 412.776 134.368C411.87 133.78 410.826 133.486 409.643 133.486C408.461 133.486 407.417 133.78 406.511 134.368C405.605 134.948 404.893 135.809 404.376 136.948C403.867 138.081 403.612 139.472 403.612 141.122C403.612 142.771 403.867 144.166 404.376 145.306C404.893 146.439 405.605 147.299 406.511 147.886C407.417 148.467 408.461 148.757 409.643 148.757C410.826 148.757 411.87 148.467 412.776 147.886C413.682 147.299 414.39 146.439 414.9 145.306C415.417 144.166 415.675 142.771 415.675 141.122ZM424.557 151.996V130.248H432.713C434.384 130.248 435.786 130.538 436.918 131.118C438.058 131.699 438.918 132.513 439.499 133.561C440.086 134.601 440.38 135.816 440.38 137.203C440.38 138.598 440.083 139.809 439.488 140.835C438.901 141.855 438.033 142.644 436.886 143.203C435.74 143.755 434.331 144.032 432.66 144.032H426.851V140.761H432.129C433.106 140.761 433.906 140.626 434.529 140.357C435.152 140.081 435.612 139.681 435.909 139.157C436.214 138.626 436.366 137.975 436.366 137.203C436.366 136.432 436.214 135.773 435.909 135.228C435.605 134.676 435.141 134.258 434.518 133.975C433.895 133.685 433.092 133.54 432.108 133.54H428.497V151.996H424.557ZM435.793 142.141L441.177 151.996H436.78L431.492 142.141H435.793ZM444.247 133.55V130.248H461.599V133.55H454.877V151.996H450.969V133.55H444.247ZM477.96 136.226C477.861 135.299 477.443 134.577 476.707 134.06C475.978 133.543 475.029 133.285 473.861 133.285C473.04 133.285 472.335 133.409 471.748 133.656C471.16 133.904 470.711 134.24 470.399 134.665C470.088 135.09 469.928 135.575 469.921 136.12C469.921 136.573 470.024 136.966 470.229 137.299C470.442 137.632 470.728 137.915 471.089 138.148C471.45 138.375 471.85 138.566 472.289 138.722C472.728 138.878 473.171 139.009 473.617 139.115L475.656 139.624C476.477 139.816 477.266 140.074 478.024 140.4C478.788 140.725 479.472 141.136 480.073 141.632C480.682 142.127 481.164 142.725 481.518 143.426C481.872 144.127 482.049 144.948 482.049 145.89C482.049 147.164 481.723 148.286 481.072 149.256C480.42 150.219 479.479 150.973 478.247 151.518C477.022 152.056 475.539 152.325 473.797 152.325C472.105 152.325 470.636 152.063 469.39 151.539C468.151 151.016 467.181 150.251 466.48 149.246C465.787 148.24 465.411 147.016 465.355 145.571H469.231C469.288 146.329 469.521 146.959 469.932 147.462C470.342 147.964 470.877 148.339 471.535 148.587C472.201 148.835 472.944 148.959 473.765 148.959C474.622 148.959 475.372 148.832 476.017 148.577C476.668 148.315 477.178 147.954 477.546 147.493C477.914 147.026 478.102 146.481 478.109 145.858C478.102 145.292 477.935 144.824 477.61 144.456C477.284 144.081 476.827 143.77 476.24 143.522C475.659 143.267 474.98 143.04 474.201 142.842L471.726 142.205C469.935 141.745 468.519 141.047 467.479 140.113C466.445 139.171 465.928 137.922 465.928 136.364C465.928 135.083 466.275 133.961 466.969 132.998C467.67 132.035 468.622 131.288 469.826 130.757C471.029 130.219 472.392 129.95 473.914 129.95C475.457 129.95 476.81 130.219 477.971 130.757C479.139 131.288 480.056 132.028 480.721 132.977C481.387 133.918 481.73 135.001 481.751 136.226H477.96Z" fill="#7F6CFD"/>
</svg>
