<svg width="1057" height="365" viewBox="0 0 1057 365" fill="none" xmlns="http://www.w3.org/2000/svg">
<path d="M441.955 152.004C441.955 161.371 440.264 169.466 436.881 176.289C433.499 183.112 428.859 188.373 422.961 192.074C417.064 195.774 410.328 197.624 402.753 197.624C395.179 197.624 388.443 195.774 382.545 192.074C376.647 188.373 372.007 183.112 368.625 176.289C365.242 169.466 363.551 161.371 363.551 152.004C363.551 142.637 365.242 134.543 368.625 127.72C372.007 120.897 376.647 115.635 382.545 111.935C388.443 108.234 395.179 106.384 402.753 106.384C410.328 106.384 417.064 108.234 422.961 111.935C428.859 115.635 433.499 120.897 436.881 127.72C440.264 134.543 441.955 142.637 441.955 152.004ZM431.548 152.004C431.548 144.314 430.261 137.824 427.688 132.533C425.144 127.243 421.689 123.239 417.324 120.521C412.987 117.804 408.13 116.445 402.753 116.445C397.376 116.445 392.504 117.804 388.139 120.521C383.803 123.239 380.348 127.243 377.775 132.533C375.231 137.824 373.959 144.314 373.959 152.004C373.959 159.694 375.231 166.185 377.775 171.475C380.348 176.766 383.803 180.77 388.139 183.487C392.504 186.205 397.376 187.564 402.753 187.564C408.13 187.564 412.987 186.205 417.324 183.487C421.689 180.77 425.144 176.766 427.688 171.475C430.261 166.185 431.548 159.694 431.548 152.004ZM460.038 196.41V107.598H490.047C497.015 107.598 502.71 108.856 507.133 111.371C511.585 113.857 514.881 117.225 517.02 121.475C519.16 125.725 520.229 130.466 520.229 135.699C520.229 140.932 519.16 145.687 517.02 149.966C514.91 154.245 511.643 157.656 507.22 160.2C502.797 162.715 497.13 163.973 490.221 163.973H468.712V154.433H489.874C494.644 154.433 498.474 153.609 501.366 151.961C504.257 150.313 506.353 148.087 507.653 145.283C508.983 142.449 509.648 139.255 509.648 135.699C509.648 132.143 508.983 128.963 507.653 126.159C506.353 123.354 504.242 121.157 501.322 119.567C498.402 117.948 494.528 117.139 489.7 117.139H470.793V196.41H460.038ZM532.697 117.139V107.598H599.306V117.139H571.379V196.41H560.624V117.139H532.697ZM626.658 107.598V196.41H615.904V107.598H626.658ZM648.222 107.598H661.058L691.24 181.319H692.281L722.463 107.598H735.299V196.41H725.238V128.934H724.371L696.617 196.41H686.903L659.15 128.934H658.282V196.41H648.222V107.598ZM767.617 107.598V196.41H756.862V107.598H767.617ZM837.749 129.801C837.229 125.407 835.118 121.996 831.418 119.567C827.717 117.139 823.178 115.924 817.801 115.924C813.869 115.924 810.429 116.56 807.48 117.832C804.56 119.104 802.276 120.854 800.629 123.08C799.01 125.306 798.2 127.835 798.2 130.669C798.2 133.039 798.764 135.077 799.891 136.783C801.048 138.46 802.522 139.862 804.315 140.989C806.107 142.088 807.986 142.999 809.952 143.721C811.918 144.415 813.725 144.979 815.373 145.413L824.393 147.841C826.706 148.448 829.279 149.287 832.112 150.356C834.974 151.426 837.706 152.886 840.308 154.736C842.939 156.558 845.107 158.899 846.813 161.761C848.518 164.623 849.371 168.136 849.371 172.299C849.371 177.098 848.113 181.435 845.598 185.309C843.112 189.183 839.469 192.262 834.67 194.545C829.9 196.829 824.104 197.971 817.281 197.971C810.921 197.971 805.413 196.945 800.759 194.892C796.133 192.84 792.49 189.978 789.831 186.306C787.2 182.634 785.711 178.37 785.364 173.513H796.466C796.755 176.867 797.882 179.642 799.848 181.839C801.843 184.008 804.358 185.627 807.394 186.696C810.458 187.737 813.754 188.258 817.281 188.258C821.386 188.258 825.072 187.593 828.339 186.263C831.606 184.904 834.193 183.025 836.101 180.625C838.009 178.197 838.963 175.364 838.963 172.126C838.963 169.177 838.139 166.777 836.492 164.927C834.844 163.077 832.675 161.573 829.987 160.417C827.298 159.261 824.393 158.249 821.27 157.381L810.342 154.259C803.404 152.264 797.911 149.417 793.864 145.716C789.816 142.016 787.793 137.173 787.793 131.189C787.793 126.216 789.137 121.88 791.825 118.179C794.543 114.45 798.186 111.559 802.753 109.506C807.35 107.425 812.482 106.384 818.148 106.384C823.872 106.384 828.961 107.41 833.413 109.463C837.865 111.487 841.392 114.262 843.994 117.789C846.625 121.316 848.012 125.32 848.157 129.801H837.749ZM862.196 117.139V107.598H928.805V117.139H900.878V196.41H890.123V117.139H862.196ZM956.158 107.598V196.41H945.403V107.598H956.158ZM1049.19 135.352H1038.43C1037.8 132.259 1036.68 129.541 1035.09 127.199C1033.53 124.858 1031.62 122.892 1029.37 121.302C1027.14 119.683 1024.67 118.468 1021.95 117.659C1019.24 116.85 1016.4 116.445 1013.45 116.445C1008.08 116.445 1003.21 117.804 998.84 120.521C994.503 123.239 991.049 127.243 988.476 132.533C985.932 137.824 984.66 144.314 984.66 152.004C984.66 159.694 985.932 166.185 988.476 171.475C991.049 176.766 994.503 180.77 998.84 183.487C1003.21 186.205 1008.08 187.564 1013.45 187.564C1016.4 187.564 1019.24 187.159 1021.95 186.349C1024.67 185.54 1027.14 184.34 1029.37 182.75C1031.62 181.131 1033.53 179.151 1035.09 176.809C1036.68 174.438 1037.8 171.721 1038.43 168.656H1049.19C1048.38 173.195 1046.9 177.257 1044.76 180.842C1042.62 184.427 1039.96 187.477 1036.78 189.992C1033.6 192.478 1030.03 194.372 1026.07 195.673C1022.14 196.974 1017.94 197.624 1013.45 197.624C1005.88 197.624 999.144 195.774 993.246 192.074C987.348 188.373 982.708 183.112 979.326 176.289C975.943 169.466 974.252 161.371 974.252 152.004C974.252 142.637 975.943 134.543 979.326 127.72C982.708 120.897 987.348 115.635 993.246 111.935C999.144 108.234 1005.88 106.384 1013.45 106.384C1017.94 106.384 1022.14 107.035 1026.07 108.335C1030.03 109.636 1033.6 111.545 1036.78 114.06C1039.96 116.546 1042.62 119.582 1044.76 123.166C1046.9 126.722 1048.38 130.784 1049.19 135.352Z" fill="white"/>
<path d="M366.748 263.406V216.091H371.069V259.525H393.617V263.406H366.748ZM414.857 263.406H410.329L427.54 216.091H432.161L449.373 263.406H444.845L430.012 221.705H429.689L414.857 263.406ZM418.114 245.27H441.587V249.152H418.114V245.27ZM465.94 263.406V216.091H481.904C484.985 216.091 487.549 216.63 489.598 217.708C491.661 218.786 493.209 220.257 494.241 222.121C495.273 223.984 495.789 226.102 495.789 228.474C495.789 230.446 495.458 232.132 494.796 233.534C494.133 234.935 493.232 236.067 492.093 236.93C490.953 237.792 489.682 238.416 488.281 238.801V239.171C489.805 239.279 491.284 239.818 492.716 240.788C494.149 241.743 495.327 243.083 496.251 244.808C497.175 246.533 497.637 248.597 497.637 251C497.637 253.387 497.106 255.52 496.043 257.399C494.981 259.263 493.348 260.734 491.145 261.812C488.958 262.875 486.171 263.406 482.782 263.406H465.94ZM470.26 259.525H482.782C486.432 259.525 489.128 258.716 490.868 257.099C492.624 255.482 493.502 253.449 493.502 251C493.502 249.198 493.063 247.565 492.185 246.102C491.323 244.623 490.098 243.453 488.512 242.59C486.941 241.728 485.092 241.296 482.967 241.296H470.26V259.525ZM470.26 237.461H482.297C484.161 237.461 485.793 237.076 487.195 236.306C488.596 235.536 489.69 234.473 490.475 233.118C491.261 231.763 491.654 230.215 491.654 228.474C491.654 225.964 490.837 223.923 489.205 222.352C487.572 220.765 485.139 219.972 481.904 219.972H470.26V237.461ZM542.211 227.92C541.949 225.286 540.787 223.191 538.723 221.636C536.659 220.08 534.063 219.302 530.937 219.302C528.734 219.302 526.794 219.68 525.115 220.434C523.451 221.189 522.142 222.236 521.187 223.576C520.248 224.901 519.778 226.41 519.778 228.105C519.778 229.352 520.048 230.446 520.587 231.385C521.126 232.325 521.85 233.133 522.758 233.811C523.682 234.473 524.699 235.043 525.808 235.521C526.932 235.998 528.064 236.399 529.204 236.722L534.194 238.154C535.704 238.57 537.213 239.102 538.723 239.749C540.232 240.395 541.611 241.212 542.858 242.197C544.121 243.168 545.13 244.361 545.885 245.778C546.655 247.18 547.04 248.867 547.04 250.838C547.04 253.364 546.385 255.636 545.076 257.654C543.767 259.671 541.888 261.273 539.439 262.459C536.99 263.63 534.056 264.215 530.637 264.215C527.417 264.215 524.622 263.683 522.25 262.621C519.878 261.543 518.014 260.056 516.659 258.162C515.304 256.267 514.541 254.073 514.372 251.577H518.808C518.962 253.441 519.578 255.02 520.656 256.314C521.734 257.607 523.136 258.593 524.861 259.271C526.586 259.933 528.511 260.264 530.637 260.264C532.993 260.264 535.088 259.871 536.921 259.086C538.769 258.285 540.217 257.176 541.264 255.759C542.327 254.327 542.858 252.663 542.858 250.769C542.858 249.167 542.442 247.827 541.611 246.749C540.779 245.655 539.616 244.739 538.122 244C536.643 243.26 534.926 242.606 532.97 242.036L527.31 240.372C523.598 239.263 520.718 237.731 518.669 235.775C516.621 233.819 515.596 231.324 515.596 228.289C515.596 225.748 516.274 223.515 517.629 221.589C519 219.649 520.848 218.139 523.174 217.061C525.515 215.968 528.141 215.421 531.052 215.421C533.994 215.421 536.597 215.96 538.861 217.038C541.125 218.116 542.92 219.603 544.244 221.497C545.584 223.376 546.3 225.517 546.393 227.92H542.211Z" fill="white"/>
<path d="M178.733 120.256C215.318 120.256 244.976 149.914 244.977 186.499C244.977 223.084 215.318 252.742 178.733 252.742C142.149 252.742 112.49 223.084 112.49 186.499C112.49 149.914 142.149 120.256 178.733 120.256Z" fill="white" stroke="white" stroke-width="2.61417"/>
<path d="M60.601 246.317C27.784 181.492 54.0843 101.198 118.934 68.3677C146.084 54.6235 177.135 50.6645 206.855 57.1289L205.607 62.8687C203.368 73.1591 193.184 79.5048 182.66 79.1175C164.584 78.4523 146.522 82.3576 130.2 90.6205C77.6426 117.227 56.257 182.514 82.8538 235.052C109.452 287.593 174.709 309.014 227.263 282.409C274.053 258.722 296.144 204.397 281.657 155.675C278.656 145.581 282.225 134.122 291.621 129.365L296.861 126.712C329.69 191.561 303.377 271.833 238.528 304.662C173.675 337.493 93.4165 311.139 60.601 246.317Z" fill="white"/>
<path d="M259.289 14.7294L260.768 55.0572C261.382 71.8208 274.888 85.2434 291.654 85.7546L331.979 86.9904L291.651 88.4693C274.888 89.0833 261.465 102.589 260.954 119.355L259.718 159.68L258.239 119.352C257.625 102.589 244.12 89.1659 227.353 88.6547L187.028 87.4189L227.356 85.94C244.12 85.326 257.542 71.8207 258.054 55.054L259.289 14.7294Z" fill="white"/>
<path d="M579.367 218.937L579.367 262.917" stroke="white" stroke-width="3.24265" stroke-linecap="round"/>
<path d="M612.325 258.887V221.926H636.003V227.539H619.021V237.573H634.379V243.186H619.021V258.887H612.325ZM644.267 258.887H637.12L650.132 221.926H658.398L671.428 258.887H664.281L654.409 229.506H654.12L644.267 258.887ZM644.501 244.395H663.992V249.773H644.501V244.395ZM685.024 221.926V258.887H678.329V221.926H685.024ZM692.683 227.539V221.926H722.172V227.539H710.748V258.887H704.107V227.539H692.683ZM729.89 258.887V221.926H736.585V237.573H753.712V221.926H760.425V258.887H753.712V243.186H736.585V258.887H729.89Z" fill="white"/>
</svg>
