<svg width="622" height="215" viewBox="0 0 622 215" fill="none" xmlns="http://www.w3.org/2000/svg">
<path d="M259.688 90.0656C259.688 95.5774 258.693 100.341 256.702 104.355C254.712 108.37 251.982 111.466 248.511 113.644C245.041 115.821 241.077 116.91 236.62 116.91C232.163 116.91 228.199 115.821 224.729 113.644C221.259 111.466 218.528 108.37 216.538 104.355C214.548 100.341 213.553 95.5774 213.553 90.0656C213.553 84.5539 214.548 79.7907 216.538 75.776C218.528 71.7612 221.259 68.6651 224.729 66.4877C228.199 64.3102 232.163 63.2214 236.62 63.2214C241.077 63.2214 245.041 64.3102 248.511 66.4877C251.982 68.6651 254.712 71.7612 256.702 75.776C258.693 79.7907 259.688 84.5539 259.688 90.0656ZM253.564 90.0656C253.564 85.5406 252.807 81.7215 251.293 78.6084C249.796 75.4953 247.763 73.1392 245.194 71.5401C242.642 69.941 239.784 69.1415 236.62 69.1415C233.456 69.1415 230.59 69.941 228.021 71.5401C225.469 73.1392 223.436 75.4953 221.922 78.6084C220.425 81.7215 219.677 85.5406 219.677 90.0656C219.677 94.5907 220.425 98.4098 221.922 101.523C223.436 104.636 225.469 106.992 228.021 108.591C230.59 110.19 233.456 110.99 236.62 110.99C239.784 110.99 242.642 110.19 245.194 108.591C247.763 106.992 249.796 104.636 251.293 101.523C252.807 98.4098 253.564 94.5907 253.564 90.0656ZM270.328 116.195V63.9359H287.986C292.086 63.9359 295.437 64.6759 298.04 66.1559C300.66 67.6189 302.599 69.6008 303.858 72.1015C305.117 74.6022 305.746 77.392 305.746 80.4711C305.746 83.5502 305.117 86.3486 303.858 88.8663C302.616 91.384 300.694 93.3914 298.091 94.8884C295.488 96.3684 292.154 97.1084 288.088 97.1084H275.432V91.4946H287.884C290.691 91.4946 292.945 91.0098 294.646 90.0401C296.348 89.0704 297.581 87.7606 298.346 86.1104C299.129 84.4433 299.52 82.5635 299.52 80.4711C299.52 78.3787 299.129 76.5074 298.346 74.8573C297.581 73.2072 296.339 71.9143 294.621 70.9787C292.903 70.0261 290.623 69.5497 287.782 69.5497H276.657V116.195H270.328ZM313.083 69.5497V63.9359H352.277V69.5497H335.844V116.195H329.516V69.5497H313.083ZM368.372 63.9359V116.195H362.044V63.9359H368.372ZM381.061 63.9359H388.614L406.374 107.315H406.986L424.746 63.9359H432.299V116.195H426.379V76.4904H425.869L409.538 116.195H403.822L387.491 76.4904H386.981V116.195H381.061V63.9359ZM451.316 63.9359V116.195H444.988V63.9359H451.316ZM492.584 77.0008C492.278 74.415 491.036 72.4077 488.858 70.9787C486.681 69.5497 484.01 68.8352 480.846 68.8352C478.532 68.8352 476.508 69.2095 474.773 69.958C473.055 70.7065 471.711 71.7357 470.741 73.0456C469.789 74.3555 469.312 75.844 469.312 77.5111C469.312 78.9061 469.644 80.1054 470.307 81.1091C470.988 82.0957 471.855 82.9208 472.91 83.5842C473.965 84.2307 475.071 84.7665 476.227 85.1918C477.384 85.6001 478.447 85.9318 479.417 86.187L484.725 87.616C486.086 87.9732 487.6 88.4665 489.267 89.096C490.951 89.7254 492.558 90.5845 494.089 91.6732C495.637 92.7449 496.913 94.1229 497.917 95.807C498.921 97.4912 499.423 99.558 499.423 102.008C499.423 104.832 498.683 107.383 497.203 109.663C495.74 111.942 493.596 113.754 490.772 115.098C487.965 116.442 484.554 117.114 480.54 117.114C476.797 117.114 473.557 116.51 470.818 115.302C468.096 114.094 465.952 112.41 464.387 110.25C462.839 108.089 461.963 105.58 461.759 102.722H468.291C468.462 104.696 469.125 106.329 470.282 107.622C471.456 108.897 472.936 109.85 474.722 110.479C476.525 111.092 478.464 111.398 480.54 111.398C482.955 111.398 485.124 111.007 487.047 110.224C488.969 109.425 490.492 108.319 491.614 106.907C492.737 105.478 493.298 103.811 493.298 101.906C493.298 100.17 492.814 98.7585 491.844 97.6698C490.874 96.581 489.598 95.6964 488.016 95.016C486.434 94.3355 484.725 93.7401 482.887 93.2298L476.457 91.3925C472.374 90.2187 469.142 88.5431 466.76 86.3656C464.379 84.1881 463.188 81.3387 463.188 77.8173C463.188 74.8913 463.979 72.3396 465.561 70.1622C467.16 67.9677 469.304 66.2665 471.991 65.0587C474.696 63.8339 477.716 63.2214 481.05 63.2214C484.418 63.2214 487.412 63.8254 490.032 65.0332C492.652 66.224 494.727 67.8571 496.258 69.9325C497.806 72.0079 498.623 74.364 498.708 77.0008H492.584ZM506.969 69.5497V63.9359H546.164V69.5497H529.731V116.195H523.402V69.5497H506.969ZM562.259 63.9359V116.195H555.931V63.9359H562.259ZM617 80.267H610.671C610.297 78.4468 609.642 76.8477 608.707 75.4697C607.788 74.0918 606.665 72.935 605.338 71.9994C604.028 71.0467 602.574 70.3323 600.975 69.8559C599.376 69.3796 597.709 69.1415 595.974 69.1415C592.809 69.1415 589.943 69.941 587.374 71.5401C584.822 73.1392 582.79 75.4953 581.276 78.6084C579.779 81.7215 579.03 85.5406 579.03 90.0656C579.03 94.5907 579.779 98.4098 581.276 101.523C582.79 104.636 584.822 106.992 587.374 108.591C589.943 110.19 592.809 110.99 595.974 110.99C597.709 110.99 599.376 110.752 600.975 110.275C602.574 109.799 604.028 109.093 605.338 108.157C606.665 107.205 607.788 106.039 608.707 104.662C609.642 103.267 610.297 101.667 610.671 99.8643H617C616.523 102.535 615.656 104.925 614.397 107.035C613.138 109.144 611.573 110.939 609.702 112.419C607.831 113.882 605.73 114.996 603.399 115.762C601.085 116.527 598.61 116.91 595.974 116.91C591.517 116.91 587.553 115.821 584.082 113.644C580.612 111.466 577.882 108.37 575.891 104.355C573.901 100.341 572.906 95.5774 572.906 90.0656C572.906 84.5539 573.901 79.7907 575.891 75.776C577.882 71.7612 580.612 68.6651 584.082 66.4877C587.553 64.3102 591.517 63.2214 595.974 63.2214C598.61 63.2214 601.085 63.6042 603.399 64.3697C605.73 65.1352 607.831 66.258 609.702 67.738C611.573 69.201 613.138 70.9872 614.397 73.0966C615.656 75.1891 616.523 77.5792 617 80.267Z" fill="black"/>
<path d="M215.432 154.742V126.9H217.974V152.458H231.243V154.742H215.432ZM243.741 154.742H241.076L251.204 126.9H253.923L264.051 154.742H261.386L252.659 130.204H252.468L243.741 154.742ZM245.657 144.07H259.47V146.354H245.657V144.07ZM273.799 154.742V126.9H283.193C285.006 126.9 286.515 127.218 287.72 127.852C288.935 128.487 289.845 129.352 290.453 130.449C291.06 131.545 291.364 132.791 291.364 134.187C291.364 135.347 291.169 136.34 290.779 137.164C290.389 137.989 289.859 138.655 289.188 139.163C288.518 139.67 287.77 140.037 286.945 140.264V140.481C287.843 140.545 288.713 140.862 289.555 141.433C290.398 141.995 291.092 142.783 291.635 143.799C292.179 144.814 292.451 146.028 292.451 147.442C292.451 148.847 292.138 150.102 291.513 151.208C290.888 152.304 289.927 153.17 288.631 153.804C287.344 154.43 285.704 154.742 283.71 154.742H273.799ZM276.341 152.458H283.71C285.858 152.458 287.444 151.982 288.468 151.031C289.501 150.079 290.018 148.883 290.018 147.442C290.018 146.382 289.759 145.421 289.243 144.56C288.735 143.69 288.015 143.001 287.081 142.493C286.157 141.986 285.069 141.732 283.819 141.732H276.341V152.458ZM276.341 139.475H283.424C284.521 139.475 285.482 139.249 286.306 138.796C287.131 138.343 287.775 137.717 288.237 136.92C288.699 136.122 288.93 135.211 288.93 134.187C288.93 132.71 288.45 131.509 287.489 130.585C286.528 129.651 285.096 129.184 283.193 129.184H276.341V139.475ZM318.68 133.861C318.525 132.311 317.841 131.079 316.627 130.163C315.412 129.248 313.885 128.79 312.045 128.79C310.749 128.79 309.607 129.012 308.62 129.456C307.641 129.9 306.87 130.517 306.308 131.305C305.756 132.085 305.479 132.973 305.479 133.97C305.479 134.704 305.638 135.347 305.955 135.9C306.272 136.453 306.698 136.929 307.233 137.328C307.777 137.717 308.375 138.053 309.027 138.334C309.689 138.614 310.355 138.85 311.026 139.04L313.962 139.883C314.85 140.128 315.739 140.441 316.627 140.821C317.515 141.202 318.326 141.682 319.06 142.262C319.803 142.833 320.397 143.536 320.841 144.37C321.294 145.194 321.521 146.187 321.521 147.347C321.521 148.833 321.136 150.17 320.365 151.357C319.595 152.544 318.489 153.487 317.048 154.185C315.607 154.874 313.881 155.218 311.869 155.218C309.974 155.218 308.33 154.905 306.934 154.28C305.538 153.646 304.441 152.771 303.644 151.656C302.846 150.541 302.398 149.25 302.298 147.782H304.908C304.999 148.878 305.361 149.807 305.996 150.569C306.63 151.33 307.455 151.91 308.47 152.309C309.485 152.698 310.618 152.893 311.869 152.893C313.255 152.893 314.488 152.662 315.566 152.2C316.654 151.729 317.506 151.076 318.122 150.242C318.747 149.4 319.06 148.421 319.06 147.306C319.06 146.363 318.815 145.575 318.326 144.94C317.837 144.297 317.152 143.758 316.273 143.323C315.403 142.888 314.393 142.503 313.242 142.167L309.911 141.188C307.727 140.536 306.032 139.634 304.827 138.483C303.621 137.332 303.019 135.864 303.019 134.078C303.019 132.583 303.417 131.269 304.215 130.136C305.021 128.994 306.109 128.106 307.478 127.471C308.855 126.828 310.4 126.506 312.113 126.506C313.844 126.506 315.376 126.823 316.708 127.458C318.041 128.092 319.096 128.967 319.876 130.082C320.664 131.187 321.086 132.447 321.14 133.861H318.68Z" fill="black"/>
<path d="M104.799 70.7578C126.326 70.7578 143.778 88.2088 143.778 109.736C143.778 131.264 126.327 148.716 104.799 148.716C83.2713 148.716 65.8203 131.264 65.8203 109.736C65.8205 88.209 83.2715 70.758 104.799 70.7578Z" fill="#7F6CFD" stroke="#7F6CFD" stroke-width="1.53825"/>
<path d="M35.2865 144.94C15.976 106.795 31.4518 59.5471 69.6114 40.2292C85.587 32.1417 103.858 29.8121 121.346 33.6159L120.612 36.9934C119.295 43.0486 113.302 46.7825 107.109 46.5546C96.4729 46.1632 85.8446 48.4612 76.2402 53.3233C45.3142 68.9793 32.7303 107.396 48.3806 138.311C64.0318 169.227 102.431 181.832 133.355 166.177C160.887 152.239 173.887 120.273 165.362 91.6032C163.596 85.6634 165.696 78.9206 171.225 76.1218L174.309 74.5607C193.626 112.719 178.142 159.954 139.984 179.271C101.822 198.59 54.596 183.082 35.2865 144.94Z" fill="#7F6CFD"/>
<path d="M152.202 8.66328L153.072 32.3933C153.434 42.2574 161.381 50.1557 171.247 50.4565L194.975 51.1837L171.245 52.0539C161.381 52.4152 153.482 60.362 153.182 70.228L152.454 93.9562L151.584 70.2261C151.223 60.362 143.276 52.4638 133.41 52.163L109.682 51.4358L133.412 50.5656C143.276 50.2043 151.174 42.2574 151.475 32.3914L152.202 8.66328Z" fill="black"/>
<path d="M340.543 128.82L340.543 154.699" stroke="#7F6CFD" stroke-width="1.90806" stroke-linecap="round"/>
<path d="M363.878 130.248V151.996H359.938V130.248H363.878ZM369.34 130.248H374.162L380.618 146.007H380.873L387.33 130.248H392.151V151.996H388.37V137.055H388.169L382.158 151.932H379.333L373.323 137.023H373.121V151.996H369.34V130.248ZM397.637 151.996V130.248H405.793C407.464 130.248 408.866 130.559 409.998 131.182C411.138 131.805 411.998 132.662 412.579 133.752C413.167 134.835 413.46 136.067 413.46 137.447C413.46 138.842 413.167 140.081 412.579 141.164C411.991 142.247 411.124 143.101 409.977 143.724C408.83 144.339 407.418 144.647 405.74 144.647H400.335V141.409H405.209C406.186 141.409 406.986 141.239 407.609 140.899C408.232 140.559 408.692 140.092 408.99 139.497C409.294 138.902 409.446 138.219 409.446 137.447C409.446 136.676 409.294 135.996 408.99 135.409C408.692 134.821 408.228 134.364 407.598 134.039C406.975 133.706 406.172 133.54 405.188 133.54H401.577V151.996H397.637ZM418.448 151.996H414.242L421.899 130.248H426.763L434.43 151.996H430.225L424.416 134.708H424.246L418.448 151.996ZM418.586 143.469H430.055V146.633H418.586V143.469ZM456.084 137.586H452.113C451.999 136.934 451.791 136.357 451.486 135.855C451.182 135.345 450.803 134.913 450.35 134.559C449.897 134.205 449.38 133.94 448.799 133.763C448.226 133.578 447.607 133.486 446.941 133.486C445.759 133.486 444.711 133.784 443.798 134.378C442.884 134.966 442.169 135.83 441.653 136.97C441.136 138.102 440.877 139.486 440.877 141.122C440.877 142.786 441.136 144.187 441.653 145.327C442.176 146.46 442.892 147.316 443.798 147.897C444.711 148.47 445.755 148.757 446.93 148.757C447.582 148.757 448.191 148.672 448.757 148.502C449.33 148.325 449.844 148.067 450.297 147.727C450.757 147.387 451.143 146.97 451.454 146.474C451.773 145.978 451.992 145.412 452.113 144.775L456.084 144.796C455.936 145.83 455.614 146.8 455.118 147.706C454.63 148.612 453.989 149.412 453.196 150.106C452.403 150.793 451.476 151.331 450.414 151.72C449.352 152.102 448.173 152.293 446.877 152.293C444.966 152.293 443.26 151.851 441.759 150.966C440.258 150.081 439.076 148.803 438.212 147.132C437.348 145.462 436.916 143.458 436.916 141.122C436.916 138.778 437.352 136.775 438.222 135.111C439.093 133.44 440.279 132.163 441.78 131.278C443.281 130.393 444.98 129.95 446.877 129.95C448.088 129.95 449.214 130.12 450.254 130.46C451.295 130.8 452.222 131.299 453.037 131.957C453.851 132.609 454.52 133.409 455.044 134.357C455.575 135.299 455.922 136.375 456.084 137.586ZM459.933 133.55V130.248H477.285V133.55H470.563V151.996H466.655V133.55H459.933Z" fill="#7F6CFD"/>
</svg>
