<svg width="622" height="215" viewBox="0 0 622 215" fill="none" xmlns="http://www.w3.org/2000/svg">
<path d="M259.598 90.0656C259.598 95.5774 258.603 100.341 256.612 104.355C254.622 108.37 251.892 111.466 248.421 113.644C244.951 115.821 240.987 116.91 236.53 116.91C232.073 116.91 228.11 115.821 224.639 113.644C221.169 111.466 218.439 108.37 216.448 104.355C214.458 100.341 213.463 95.5774 213.463 90.0656C213.463 84.5539 214.458 79.7907 216.448 75.776C218.439 71.7612 221.169 68.6651 224.639 66.4877C228.11 64.3102 232.073 63.2214 236.53 63.2214C240.987 63.2214 244.951 64.3102 248.421 66.4877C251.892 68.6651 254.622 71.7612 256.612 75.776C258.603 79.7907 259.598 84.5539 259.598 90.0656ZM253.474 90.0656C253.474 85.5406 252.717 81.7215 251.203 78.6084C249.706 75.4953 247.673 73.1392 245.104 71.5401C242.552 69.941 239.694 69.1415 236.53 69.1415C233.366 69.1415 230.5 69.941 227.931 71.5401C225.379 73.1392 223.346 75.4953 221.832 78.6084C220.335 81.7215 219.587 85.5406 219.587 90.0656C219.587 94.5907 220.335 98.4098 221.832 101.523C223.346 104.636 225.379 106.992 227.931 108.591C230.5 110.19 233.366 110.99 236.53 110.99C239.694 110.99 242.552 110.19 245.104 108.591C247.673 106.992 249.706 104.636 251.203 101.523C252.717 98.4098 253.474 94.5907 253.474 90.0656ZM270.239 116.195V63.9359H287.897C291.996 63.9359 295.348 64.6759 297.95 66.1559C300.57 67.6189 302.509 69.6008 303.768 72.1015C305.027 74.6022 305.657 77.392 305.657 80.4711C305.657 83.5502 305.027 86.3486 303.768 88.8663C302.526 91.384 300.604 93.3914 298.001 94.8884C295.399 96.3684 292.064 97.1084 287.999 97.1084H275.342V91.4946H287.795C290.601 91.4946 292.855 91.0098 294.557 90.0401C296.258 89.0704 297.491 87.7606 298.257 86.1104C299.039 84.4433 299.43 82.5635 299.43 80.4711C299.43 78.3787 299.039 76.5074 298.257 74.8573C297.491 73.2072 296.249 71.9143 294.531 70.9787C292.813 70.0261 290.533 69.5497 287.692 69.5497H276.567V116.195H270.239ZM312.993 69.5497V63.9359H352.187V69.5497H335.754V116.195H329.426V69.5497H312.993ZM368.282 63.9359V116.195H361.954V63.9359H368.282ZM380.971 63.9359H388.524L406.284 107.315H406.896L424.656 63.9359H432.21V116.195H426.29V76.4904H425.779L409.448 116.195H403.732L387.401 76.4904H386.891V116.195H380.971V63.9359ZM451.226 63.9359V116.195H444.898V63.9359H451.226ZM492.494 77.0008C492.188 74.415 490.946 72.4077 488.769 70.9787C486.591 69.5497 483.92 68.8352 480.756 68.8352C478.443 68.8352 476.418 69.2095 474.683 69.958C472.965 70.7065 471.621 71.7357 470.651 73.0456C469.699 74.3555 469.222 75.844 469.222 77.5111C469.222 78.9061 469.554 80.1054 470.218 81.1091C470.898 82.0957 471.766 82.9208 472.82 83.5842C473.875 84.2307 474.981 84.7665 476.138 85.1918C477.294 85.6001 478.358 85.9318 479.327 86.187L484.635 87.616C485.996 87.9732 487.51 88.4665 489.177 89.096C490.861 89.7254 492.469 90.5845 494 91.6732C495.548 92.7449 496.824 94.1229 497.827 95.807C498.831 97.4912 499.333 99.558 499.333 102.008C499.333 104.832 498.593 107.383 497.113 109.663C495.65 111.942 493.506 113.754 490.682 115.098C487.875 116.442 484.465 117.114 480.45 117.114C476.707 117.114 473.467 116.51 470.728 115.302C468.006 114.094 465.863 112.41 464.297 110.25C462.749 108.089 461.873 105.58 461.669 102.722H468.202C468.372 104.696 469.035 106.329 470.192 107.622C471.366 108.897 472.846 109.85 474.632 110.479C476.435 111.092 478.375 111.398 480.45 111.398C482.866 111.398 485.035 111.007 486.957 110.224C488.879 109.425 490.402 108.319 491.524 106.907C492.647 105.478 493.209 103.811 493.209 101.906C493.209 100.17 492.724 98.7585 491.754 97.6698C490.784 96.581 489.509 95.6964 487.926 95.016C486.344 94.3355 484.635 93.7401 482.798 93.2298L476.367 91.3925C472.284 90.2187 469.052 88.5431 466.671 86.3656C464.289 84.1881 463.098 81.3387 463.098 77.8173C463.098 74.8913 463.889 72.3396 465.471 70.1622C467.07 67.9677 469.214 66.2665 471.902 65.0587C474.606 63.8339 477.626 63.2214 480.96 63.2214C484.329 63.2214 487.323 63.8254 489.942 65.0332C492.562 66.224 494.638 67.8571 496.169 69.9325C497.717 72.0079 498.533 74.364 498.618 77.0008H492.494ZM506.879 69.5497V63.9359H546.074V69.5497H529.641V116.195H523.313V69.5497H506.879ZM562.169 63.9359V116.195H555.841V63.9359H562.169ZM616.91 80.267H610.582C610.207 78.4468 609.552 76.8477 608.617 75.4697C607.698 74.0918 606.575 72.935 605.249 71.9994C603.939 71.0467 602.484 70.3323 600.885 69.8559C599.286 69.3796 597.619 69.1415 595.884 69.1415C592.72 69.1415 589.853 69.941 587.284 71.5401C584.733 73.1392 582.7 75.4953 581.186 78.6084C579.689 81.7215 578.94 85.5406 578.94 90.0656C578.94 94.5907 579.689 98.4098 581.186 101.523C582.7 104.636 584.733 106.992 587.284 108.591C589.853 110.19 592.72 110.99 595.884 110.99C597.619 110.99 599.286 110.752 600.885 110.275C602.484 109.799 603.939 109.093 605.249 108.157C606.575 107.205 607.698 106.039 608.617 104.662C609.552 103.267 610.207 101.667 610.582 99.8643H616.91C616.434 102.535 615.566 104.925 614.307 107.035C613.048 109.144 611.483 110.939 609.612 112.419C607.741 113.882 605.64 114.996 603.309 115.762C600.996 116.527 598.52 116.91 595.884 116.91C591.427 116.91 587.463 115.821 583.993 113.644C580.522 111.466 577.792 108.37 575.802 104.355C573.811 100.341 572.816 95.5774 572.816 90.0656C572.816 84.5539 573.811 79.7907 575.802 75.776C577.792 71.7612 580.522 68.6651 583.993 66.4877C587.463 64.3102 591.427 63.2214 595.884 63.2214C598.52 63.2214 600.996 63.6042 603.309 64.3697C605.64 65.1352 607.741 66.258 609.612 67.738C611.483 69.201 613.048 70.9872 614.307 73.0966C615.566 75.1891 616.434 77.5792 616.91 80.267Z" fill="black"/>
<path d="M215.338 154.742V126.9H217.881V152.458H231.149V154.742H215.338ZM243.647 154.742H240.982L251.11 126.9H253.829L263.957 154.742H261.293L252.565 130.204H252.375L243.647 154.742ZM245.564 144.07H259.376V146.354H245.564V144.07ZM273.706 154.742V126.9H283.099C284.912 126.9 286.421 127.218 287.626 127.852C288.841 128.487 289.752 129.352 290.359 130.449C290.966 131.545 291.27 132.791 291.27 134.187C291.27 135.347 291.075 136.34 290.685 137.164C290.295 137.989 289.765 138.655 289.095 139.163C288.424 139.67 287.676 140.037 286.852 140.264V140.481C287.749 140.545 288.619 140.862 289.462 141.433C290.305 141.995 290.998 142.783 291.542 143.799C292.085 144.814 292.357 146.028 292.357 147.442C292.357 148.847 292.045 150.102 291.419 151.208C290.794 152.304 289.833 153.17 288.537 153.804C287.25 154.43 285.61 154.742 283.616 154.742H273.706ZM276.248 152.458H283.616C285.764 152.458 287.35 151.982 288.374 151.031C289.407 150.079 289.924 148.883 289.924 147.442C289.924 146.382 289.666 145.421 289.149 144.56C288.641 143.69 287.921 143.001 286.987 142.493C286.063 141.986 284.975 141.732 283.725 141.732H276.248V152.458ZM276.248 139.475H283.331C284.427 139.475 285.388 139.249 286.213 138.796C287.037 138.343 287.681 137.717 288.143 136.92C288.605 136.122 288.836 135.211 288.836 134.187C288.836 132.71 288.356 131.509 287.395 130.585C286.435 129.651 285.003 129.184 283.099 129.184H276.248V139.475ZM318.586 133.861C318.432 132.311 317.747 131.079 316.533 130.163C315.319 129.248 313.791 128.79 311.952 128.79C310.656 128.79 309.514 129.012 308.526 129.456C307.547 129.9 306.777 130.517 306.215 131.305C305.662 132.085 305.385 132.973 305.385 133.97C305.385 134.704 305.544 135.347 305.861 135.9C306.178 136.453 306.604 136.929 307.139 137.328C307.683 137.717 308.281 138.053 308.934 138.334C309.595 138.614 310.261 138.85 310.932 139.04L313.868 139.883C314.757 140.128 315.645 140.441 316.533 140.821C317.421 141.202 318.232 141.682 318.966 142.262C319.71 142.833 320.303 143.536 320.747 144.37C321.2 145.194 321.427 146.187 321.427 147.347C321.427 148.833 321.042 150.17 320.271 151.357C319.501 152.544 318.395 153.487 316.954 154.185C315.513 154.874 313.787 155.218 311.775 155.218C309.881 155.218 308.236 154.905 306.84 154.28C305.444 153.646 304.348 152.771 303.55 151.656C302.753 150.541 302.304 149.25 302.204 147.782H304.814C304.905 148.878 305.268 149.807 305.902 150.569C306.536 151.33 307.361 151.91 308.376 152.309C309.391 152.698 310.524 152.893 311.775 152.893C313.162 152.893 314.394 152.662 315.473 152.2C316.56 151.729 317.412 151.076 318.028 150.242C318.654 149.4 318.966 148.421 318.966 147.306C318.966 146.363 318.722 145.575 318.232 144.94C317.743 144.297 317.059 143.758 316.18 143.323C315.309 142.888 314.299 142.503 313.148 142.167L309.817 141.188C307.633 140.536 305.938 139.634 304.733 138.483C303.527 137.332 302.925 135.864 302.925 134.078C302.925 132.583 303.324 131.269 304.121 130.136C304.928 128.994 306.015 128.106 307.384 127.471C308.761 126.828 310.307 126.506 312.02 126.506C313.751 126.506 315.282 126.823 316.615 127.458C317.947 128.092 319.003 128.967 319.782 130.082C320.571 131.187 320.992 132.447 321.046 133.861H318.586Z" fill="black"/>
<path d="M104.709 70.7578C126.237 70.7578 143.688 88.2088 143.688 109.736C143.688 131.264 126.237 148.716 104.709 148.716C83.1815 148.716 65.7305 131.264 65.7305 109.736C65.7307 88.209 83.1816 70.758 104.709 70.7578Z" fill="#7F6CFD" stroke="#7F6CFD" stroke-width="1.53825"/>
<path d="M35.1927 144.94C15.8823 106.795 31.3581 59.5471 69.5177 40.2292C85.4932 32.1417 103.764 29.8121 121.253 33.6159L120.518 36.9934C119.201 43.0486 113.208 46.7825 107.016 46.5546C96.3792 46.1632 85.7508 48.4612 76.1465 53.3233C45.2204 68.9793 32.6366 107.396 48.2869 138.311C63.9381 169.227 102.337 181.832 133.261 166.177C160.794 152.239 173.793 120.273 165.268 91.6032C163.502 85.6634 165.603 78.9206 171.131 76.1218L174.215 74.5607C193.532 112.719 178.049 159.954 139.89 179.271C101.729 198.59 54.5023 183.082 35.1927 144.94Z" fill="#7F6CFD"/>
<path d="M152.112 8.66328L152.983 32.3933C153.344 42.2574 161.291 50.1557 171.157 50.4565L194.885 51.1837L171.155 52.0539C161.291 52.4152 153.392 60.362 153.092 70.228L152.364 93.9562L151.494 70.2261C151.133 60.362 143.186 52.4638 133.32 52.163L109.592 51.4358L133.322 50.5656C143.186 50.2043 151.084 42.2574 151.385 32.3914L152.112 8.66328Z" fill="black"/>
<path d="M359.848 151.996V130.248H368.004C369.675 130.248 371.077 130.559 372.209 131.182C373.349 131.805 374.209 132.662 374.79 133.752C375.377 134.835 375.671 136.067 375.671 137.447C375.671 138.842 375.377 140.081 374.79 141.164C374.202 142.247 373.335 143.101 372.188 143.724C371.041 144.339 369.629 144.647 367.951 144.647H362.546V141.409H367.42C368.397 141.409 369.197 141.239 369.82 140.899C370.443 140.559 370.903 140.092 371.2 139.497C371.505 138.902 371.657 138.219 371.657 137.447C371.657 136.676 371.505 135.996 371.2 135.409C370.903 134.821 370.439 134.364 369.809 134.039C369.186 133.706 368.383 133.54 367.399 133.54H363.788V151.996H359.848ZM399.723 141.122C399.723 143.465 399.284 145.472 398.406 147.143C397.535 148.807 396.346 150.081 394.838 150.966C393.337 151.851 391.635 152.293 389.73 152.293C387.826 152.293 386.12 151.851 384.612 150.966C383.111 150.074 381.921 148.796 381.043 147.132C380.173 145.462 379.737 143.458 379.737 141.122C379.737 138.778 380.173 136.775 381.043 135.111C381.921 133.44 383.111 132.163 384.612 131.278C386.12 130.393 387.826 129.95 389.73 129.95C391.635 129.95 393.337 130.393 394.838 131.278C396.346 132.163 397.535 133.44 398.406 135.111C399.284 136.775 399.723 138.778 399.723 141.122ZM395.762 141.122C395.762 139.472 395.504 138.081 394.987 136.948C394.477 135.809 393.769 134.948 392.863 134.368C391.957 133.78 390.912 133.486 389.73 133.486C388.548 133.486 387.504 133.78 386.597 134.368C385.691 134.948 384.98 135.809 384.463 136.948C383.953 138.081 383.698 139.472 383.698 141.122C383.698 142.771 383.953 144.166 384.463 145.306C384.98 146.439 385.691 147.299 386.597 147.886C387.504 148.467 388.548 148.757 389.73 148.757C390.912 148.757 391.957 148.467 392.863 147.886C393.769 147.299 394.477 146.439 394.987 145.306C395.504 144.166 395.762 142.771 395.762 141.122ZM404.644 151.996V130.248H408.584V148.693H418.163V151.996H404.644ZM426.718 130.248V151.996H422.778V130.248H426.718ZM450.796 137.586H446.825C446.711 136.934 446.503 136.357 446.198 135.855C445.894 135.345 445.515 134.913 445.062 134.559C444.609 134.205 444.092 133.94 443.511 133.763C442.938 133.578 442.318 133.486 441.653 133.486C440.471 133.486 439.423 133.784 438.51 134.378C437.596 134.966 436.881 135.83 436.365 136.97C435.848 138.102 435.589 139.486 435.589 141.122C435.589 142.786 435.848 144.187 436.365 145.327C436.888 146.46 437.603 147.316 438.51 147.897C439.423 148.47 440.467 148.757 441.642 148.757C442.294 148.757 442.903 148.672 443.469 148.502C444.042 148.325 444.556 148.067 445.009 147.727C445.469 147.387 445.855 146.97 446.166 146.474C446.485 145.978 446.704 145.412 446.825 144.775L450.796 144.796C450.648 145.83 450.326 146.8 449.83 147.706C449.341 148.612 448.701 149.412 447.908 150.106C447.115 150.793 446.187 151.331 445.126 151.72C444.064 152.102 442.885 152.293 441.589 152.293C439.678 152.293 437.972 151.851 436.471 150.966C434.97 150.081 433.788 148.803 432.924 147.132C432.06 145.462 431.628 143.458 431.628 141.122C431.628 138.778 432.064 136.775 432.934 135.111C433.805 133.44 434.991 132.163 436.492 131.278C437.993 130.393 439.692 129.95 441.589 129.95C442.8 129.95 443.926 130.12 444.966 130.46C446.007 130.8 446.934 131.299 447.749 131.957C448.563 132.609 449.232 133.409 449.756 134.357C450.287 135.299 450.633 136.375 450.796 137.586ZM454.114 130.248H458.563L463.884 139.869H464.096L469.416 130.248H473.866L465.954 143.883V151.996H462.025V143.883L454.114 130.248Z" fill="#7F6CFD"/>
<path d="M340.449 128.82L340.449 154.699" stroke="#7F6CFD" stroke-width="1.90806" stroke-linecap="round"/>
</svg>
